<svg xmlns="http://www.w3.org/2000/svg" width="1024" height="1024" fill="none" viewBox="0 0 1024 1024"><rect width="690" height="690" x="167" y="167" fill="#fff" rx="100"/><g filter="url(#filter0_diii_36_46)"><path fill="#C80F0F" d="M512 287C452.326 287 395.097 310.705 352.901 352.901C310.705 395.097 287 452.326 287 512C287 571.674 310.705 628.903 352.901 671.099C395.097 713.295 452.326 737 512 737C571.674 737 628.903 713.295 671.099 671.099C713.295 628.903 737 571.674 737 512C737 452.326 713.295 395.097 671.099 352.901C628.903 310.705 571.674 287 512 287Z"/><path fill="url(#paint0_linear_36_46)" d="M512 287C452.326 287 395.097 310.705 352.901 352.901C310.705 395.097 287 452.326 287 512C287 571.674 310.705 628.903 352.901 671.099C395.097 713.295 452.326 737 512 737C571.674 737 628.903 713.295 671.099 671.099C713.295 628.903 737 571.674 737 512C737 452.326 713.295 395.097 671.099 352.901C628.903 310.705 571.674 287 512 287Z"/><path fill="url(#paint1_linear_36_46)" fill-opacity=".7" d="M512 287C452.326 287 395.097 310.705 352.901 352.901C310.705 395.097 287 452.326 287 512C287 571.674 310.705 628.903 352.901 671.099C395.097 713.295 452.326 737 512 737C571.674 737 628.903 713.295 671.099 671.099C713.295 628.903 737 571.674 737 512C737 452.326 713.295 395.097 671.099 352.901C628.903 310.705 571.674 287 512 287Z"/></g><g filter="url(#filter1_dii_36_46)"><path fill="#fff" d="M462.073 545.75C462.073 508.299 455.75 495.327 455.75 480.635C455.75 447.234 479.724 444.5 489.86 444.5C504.305 444.5 523.25 454.299 523.25 472.625C523.25 499.299 500.75 502.674 500.75 502.674C500.75 502.674 500.75 512 500.75 528.425C500.75 545.75 504.935 568.25 535.884 568.25C585.541 568.25 590.75 499.04 590.75 480.084C590.75 453.882 573.987 399.5 514.396 399.5C434.915 399.5 422 470.521 422 489.5C422 497.622 423.485 513.372 425.026 519.504C448.719 525.354 443.195 546.223 436.771 552.073C427.445 560.69 388.25 562.366 388.25 481.906C388.25 405.271 456.56 365.75 516.523 365.75C573.583 365.75 635.75 405.148 635.75 481.018C635.75 548.72 587.071 602.034 535.94 602.034C505.25 602.034 488.971 576.744 488.971 576.744C488.971 624.5 450.069 692.934 444.5 703.25C444.5 703.25 462.073 614.893 462.073 545.75Z"/></g><defs><linearGradient id="paint0_linear_36_46" x1="512.345" x2="512.345" y1="125.393" y2="637" gradientUnits="userSpaceOnUse"><stop offset=".005" stop-color="#fff" stop-opacity=".08"/><stop offset=".085" stop-opacity=".08"/><stop offset=".337" stop-color="#fff" stop-opacity=".1"/><stop offset=".661" stop-color="#fff" stop-opacity=".1"/><stop offset="1" stop-opacity=".1"/></linearGradient><linearGradient id="paint1_linear_36_46" x1="512" x2="512" y1="287" y2="737" gradientUnits="userSpaceOnUse"><stop stop-color="#C80F0F"/><stop offset="1" stop-color="#fff" stop-opacity="0"/></linearGradient><filter id="filter0_diii_36_46" width="490" height="503.656" x="267" y="266.806" color-interpolation-filters="sRGB" filterUnits="userSpaceOnUse"><feFlood flood-opacity="0" result="BackgroundImageFix"/><feColorMatrix in="SourceAlpha" result="hardAlpha" values="0 0 0 0 0 0 0 0 0 0 0 0 0 0 0 0 0 0 127 0"/><feOffset dy="13.462"/><feGaussianBlur stdDeviation="10"/><feColorMatrix values="0 0 0 0 0.784314 0 0 0 0 0.0588235 0 0 0 0 0.0588235 0 0 0 0.6 0"/><feBlend in2="BackgroundImageFix" result="effect1_dropShadow_36_46"/><feBlend in="SourceGraphic" in2="effect1_dropShadow_36_46" result="shape"/><feColorMatrix in="SourceAlpha" result="hardAlpha" values="0 0 0 0 0 0 0 0 0 0 0 0 0 0 0 0 0 0 127 0"/><feOffset dy="-20.194"/><feGaussianBlur stdDeviation="45"/><feComposite in2="hardAlpha" k2="-1" k3="1" operator="arithmetic"/><feColorMatrix values="0 0 0 0 0.784314 0 0 0 0 0.0588235 0 0 0 0 0.0588235 0 0 0 0.6 0"/><feBlend in2="shape" result="effect2_innerShadow_36_46"/><feColorMatrix in="SourceAlpha" result="hardAlpha" values="0 0 0 0 0 0 0 0 0 0 0 0 0 0 0 0 0 0 127 0"/><feOffset dx="8" dy="15"/><feGaussianBlur stdDeviation="6.5"/><feComposite in2="hardAlpha" k2="-1" k3="1" operator="arithmetic"/><feColorMatrix values="0 0 0 0 1 0 0 0 0 1 0 0 0 0 1 0 0 0 0.3 0"/><feBlend in2="effect2_innerShadow_36_46" result="effect3_innerShadow_36_46"/><feColorMatrix in="SourceAlpha" result="hardAlpha" values="0 0 0 0 0 0 0 0 0 0 0 0 0 0 0 0 0 0 127 0"/><feOffset dy="-10"/><feGaussianBlur stdDeviation="7"/><feComposite in2="hardAlpha" k2="-1" k3="1" operator="arithmetic"/><feColorMatrix values="0 0 0 0 1 0 0 0 0 1 0 0 0 0 1 0 0 0 0.25 0"/><feBlend in2="effect3_innerShadow_36_46" result="effect4_innerShadow_36_46"/></filter><filter id="filter1_dii_36_46" width="365.969" height="455.969" x="329.016" y="338.825" color-interpolation-filters="sRGB" filterUnits="userSpaceOnUse"><feFlood flood-opacity="0" result="BackgroundImageFix"/><feColorMatrix in="SourceAlpha" result="hardAlpha" values="0 0 0 0 0 0 0 0 0 0 0 0 0 0 0 0 0 0 127 0"/><feOffset dy="32.31"/><feGaussianBlur stdDeviation="29.617"/><feColorMatrix values="0 0 0 0 0 0 0 0 0 0.0980392 0 0 0 0 0.345098 0 0 0 0.25 0"/><feBlend in2="BackgroundImageFix" result="effect1_dropShadow_36_46"/><feBlend in="SourceGraphic" in2="effect1_dropShadow_36_46" result="shape"/><feColorMatrix in="SourceAlpha" result="hardAlpha" values="0 0 0 0 0 0 0 0 0 0 0 0 0 0 0 0 0 0 127 0"/><feOffset dy="-21.54"/><feGaussianBlur stdDeviation="13.462"/><feComposite in2="hardAlpha" k2="-1" k3="1" operator="arithmetic"/><feColorMatrix values="0 0 0 0 0.0716667 0 0 0 0 0.498639 0 0 0 0 0.716667 0 0 0 0.29 0"/><feBlend in2="shape" result="effect2_innerShadow_36_46"/><feColorMatrix in="SourceAlpha" result="hardAlpha" values="0 0 0 0 0 0 0 0 0 0 0 0 0 0 0 0 0 0 127 0"/><feOffset dy="-8.077"/><feGaussianBlur stdDeviation="5.385"/><feComposite in2="hardAlpha" k2="-1" k3="1" operator="arithmetic"/><feColorMatrix values="0 0 0 0 1 0 0 0 0 1 0 0 0 0 1 0 0 0 0.75 0"/><feBlend in2="effect2_innerShadow_36_46" result="effect3_innerShadow_36_46"/></filter></defs></svg>